<svg width="17" height="18" viewBox="0 0 17 18" fill="none" xmlns="http://www.w3.org/2000/svg">
<path d="M12.75 14.6667H2.12501C1.93701 14.6686 1.75621 14.5944 1.62374 14.461C1.49126 14.3276 1.41837 14.1463 1.42163 13.9583H1.41667V4.04167C1.41667 3.25926 2.05093 2.625 2.83334 2.625H7.08334C7.24155 2.62515 7.39516 2.67827 7.51967 2.77588L9.1375 4.04167H12.75C13.5324 4.04167 14.1667 4.67593 14.1667 5.45833V8.29167H14.875C15.1131 8.29169 15.3353 8.41134 15.4663 8.61013C15.5974 8.80891 15.6198 9.06024 15.526 9.27908L13.401 14.2374C13.2893 14.4978 13.0333 14.6667 12.75 14.6667ZM4.7175 9.70833L3.19955 13.25H12.2832L13.8012 9.70833H4.7175ZM2.83334 5.45833V10.5087L3.59905 8.72092C3.71067 8.46053 3.9667 8.2917 4.25001 8.29167H12.75V5.45833H2.83334Z" fill="#BFBFBF"/>
</svg>
