<svg width="21" height="22" viewBox="0 0 21 22" fill="none" xmlns="http://www.w3.org/2000/svg">
<path d="M3.5 17.1259H1.75C1.75 14.2264 4.1005 11.8759 7 11.8759C9.89949 11.8759 12.25 14.2264 12.25 17.1259H10.5C10.5 15.1929 8.933 13.6259 7 13.6259C5.067 13.6259 3.5 15.1929 3.5 17.1259ZM16.0685 13.9435L14.8312 12.7063C15.98 11.5576 16.6254 9.99958 16.6254 8.37502C16.6254 6.75046 15.98 5.19245 14.8312 4.04377L16.0685 2.80652C19.1433 5.88181 19.1433 10.8674 16.0685 13.9426V13.9435ZM13.5931 11.469L12.3559 10.23C13.3795 9.20516 13.3795 7.54488 12.3559 6.52002L13.5931 5.28014C15.3016 6.98868 15.3016 9.75873 13.5931 11.4673V11.469ZM7 11C5.067 11 3.5 9.43302 3.5 7.50002C3.5 5.56702 5.067 4.00002 7 4.00002C8.933 4.00002 10.5 5.56702 10.5 7.50002C10.5 8.42828 10.1313 9.31852 9.47487 9.97489C8.8185 10.6313 7.92826 11 7 11ZM7 5.75002C6.04397 5.75099 5.26565 6.51901 5.25195 7.47494C5.23825 8.43087 5.99424 9.22088 6.94985 9.24925C7.90546 9.27761 8.70698 8.53383 8.75 7.57877V7.92877V7.50002C8.75 6.53352 7.9665 5.75002 7 5.75002Z" fill="#BFBFBF"/>
</svg>
